<?xml version="1.0" standalone="no"?><!DOCTYPE svg PUBLIC "-//W3C//DTD SVG 1.1//EN" "http://www.w3.org/Graphics/SVG/1.1/DTD/svg11.dtd"><svg t="1595934701361" class="icon" viewBox="0 0 1024 1024" version="1.1" xmlns="http://www.w3.org/2000/svg" p-id="2928" xmlns:xlink="http://www.w3.org/1999/xlink" width="360" height="360"><defs><style type="text/css"></style></defs><path d="M935.384615 59.076923h-846.76923C39.384615 59.076923 0 98.461538 0 147.692308v531.692307C0 728.615385 39.384615 768 88.615385 768H295.384615v137.846154h-88.615384c-15.753846 0-29.538462 13.784615-29.538462 29.538461s13.784615 29.538462 29.538462 29.538462h610.461538c15.753846 0 29.538462-13.784615 29.538462-29.538462s-13.784615-29.538462-29.538462-29.538461H728.615385v-137.846154h206.76923c49.230769 0 88.615385-39.384615 88.615385-88.615385v-531.692307C1024 98.461538 984.615385 59.076923 935.384615 59.076923zM669.538462 905.846154H354.461538v-137.846154h315.076924v137.846154z m295.384615-226.461539c0 15.753846-13.784615 29.538462-29.538462 29.538462h-846.76923c-15.753846 0-29.538462-13.784615-29.538462-29.538462v-531.692307C59.076923 131.938462 72.861538 118.153846 88.615385 118.153846h846.76923c15.753846 0 29.538462 13.784615 29.538462 29.538462v531.692307z" fill="#4069FF" p-id="2929"></path><path d="M382.030769 256c-3.938462-11.815385-15.753846-19.692308-27.569231-19.692308s-23.630769 7.876923-27.56923 19.692308l-108.307693 295.384615c-5.907692 15.753846 1.969231 31.507692 17.723077 37.415385s31.507692-1.969231 37.415385-17.723077l21.661538-59.076923h118.153847l21.661538 59.076923c3.938462 11.815385 15.753846 19.692308 27.569231 19.692308 3.938462 0 5.907692 0 9.846154-1.969231 15.753846-5.907692 23.630769-21.661538 17.723077-37.415385l-108.307693-295.384615z m-64.984615 196.923077l37.415384-100.430769 37.415385 100.430769h-74.830769zM630.153846 236.307692h-49.230769c-15.753846 0-29.538462 13.784615-29.538462 29.538462v295.384615c0 15.753846 13.784615 29.538462 29.538462 29.538462H630.153846c98.461538 0 177.230769-78.769231 177.230769-177.230769s-78.769231-177.230769-177.230769-177.23077z m0 295.384616h-19.692308V295.384615h19.692308c64.984615 0 118.153846 53.169231 118.153846 118.153847s-53.169231 118.153846-118.153846 118.153846z" fill="#12B9FF" p-id="2930"></path><path d="M374.153846 787.692308h275.692308v98.461538H374.153846z" fill="#E6F3FF" p-id="2931"></path></svg>