<?xml version="1.0" standalone="no"?><!DOCTYPE svg PUBLIC "-//W3C//DTD SVG 1.1//EN" "http://www.w3.org/Graphics/SVG/1.1/DTD/svg11.dtd"><svg t="1595934745505" class="icon" viewBox="0 0 1024 1024" version="1.1" xmlns="http://www.w3.org/2000/svg" p-id="3830" xmlns:xlink="http://www.w3.org/1999/xlink" width="360" height="360"><defs><style type="text/css"></style></defs><path d="M914.432 818.389333l-114.858667 16.362667-72.533333 91.733333a43.242667 43.242667 0 0 1-59.093333-15.829333l-109.226667-189.162667a339.392 339.392 0 0 1-48.021333 3.776 343.872 343.872 0 0 1-49.941334-4.053333l-109.525333 189.696a42.666667 42.666667 0 0 1-58.282667 15.616l-71.466666-90.517333-113.28-16.149334a42.666667 42.666667 0 0 1-15.616-58.282666l121.109333-209.770667a341.333333 341.333333 0 1 1 595.413333-2.368l121.130667 209.792a43.264 43.264 0 0 1-15.808 59.157333zM158.72 775.168l94.805333 5.461333 52.992 79.872 89.6-155.285333a341.525333 341.525333 0 0 1-141.589333-96zM510.741333 106.666667a277.333333 277.333333 0 1 0 277.333334 277.333333 277.333333 277.333333 0 0 0-277.333334-277.333333zM768 608a341.333333 341.333333 0 0 1-143.488 97.6l88.917333 154.026667 53.76-81.066667 96.128-5.546667z" fill="#5C8EF3" p-id="3831"></path><path d="M512 576a192 192 0 1 1 192-192 192 192 0 0 1-192 192z m-0.661333-320.661333a128 128 0 1 0 128 128 128 128 0 0 0-128-128z" fill="#EB9E52" p-id="3832"></path></svg>