<?xml version="1.0" standalone="no"?><!DOCTYPE svg PUBLIC "-//W3C//DTD SVG 1.1//EN" "http://www.w3.org/Graphics/SVG/1.1/DTD/svg11.dtd"><svg t="1594756762056" class="icon" viewBox="0 0 1024 1024" version="1.1" xmlns="http://www.w3.org/2000/svg" p-id="15435" xmlns:xlink="http://www.w3.org/1999/xlink" width="128" height="128"><defs><style type="text/css"></style></defs><path d="M380.3 192.5c-40.9-12.8-77.6-20.9-109.1-24.1-47.9-4.8-81.7 2-103.5 20.8-24.9 21.5-26.4 53-23 76.3v400.2c0 12.1 9.6 20.8 19.5 28.7 7.8 6.2 18.6 13.9 33 23.4 23.4 15.5 55.8 35.5 96.5 59.7 69 40.9 138.9 80 139.6 80.3l4.5 2.5h5.2c17.2 0 33.7-9.7 46.4-27.2 10.2-14.1 16.4-31 16.4-45.2V316.4c0.1-31.6-16.2-89.7-125.5-123.9z m85.6 595.4c0 4.7-3.1 13.9-8.7 21.7-3.4 4.7-7.2 8.2-10.5 9.8-17.5-9.8-69.4-39.1-122.7-70.6-103.1-60.8-131.4-82.4-139.1-89.4v-397l-0.2-1.5c-4.6-29.3 5.9-38.4 9.4-41.4 23.2-20 88.4-15.8 174.4 11.2 62.9 19.7 97.5 50.1 97.5 85.7v471.5zM894.4 665.6V264c0-24.2-9.2-45.1-26.7-60.4-21-18.4-53.5-28.8-96.7-31.1-30.5-1.6-55.4 1.7-56.5 1.8l-0.8 0.1c-61 10.6-104.2 36.2-129.7 55.8-24.6 18.9-50.8 46.9-50.8 68.7v489c0 29.2 26.4 72.4 62.8 72.4h5.2l4.5-2.5c0.7-0.4 70.6-39.4 139.6-80.3 40.7-24.1 73.1-44.2 96.5-59.7 14.4-9.5 25.2-17.2 33-23.4 10-8 19.6-16.7 19.6-28.8z m-40-6.2c-7.7 7-36.1 28.6-139.1 89.4-53.3 31.4-105.3 60.8-122.8 70.6-3.3-1.6-7.1-5.1-10.5-9.8-5.7-7.8-8.7-17-8.7-21.7V300c1.7-5 13.3-22.2 39.3-41.3 21.4-15.6 57.4-36.1 107.6-44.9 24.3-3.1 92.2-5.6 121.1 19.7 8.9 7.8 13 17.4 13 30.3v395.6z" fill="#1296db" p-id="15436"></path><path d="M109 264H69v427.4l75.7 75.7 28.3-28.3-64-64zM924.3 264v410.8l-64 64 28.3 28.3 75.7-75.7V264zM248.736 386.422l13.112-37.788 144.539 50.153-13.112 37.788zM241.638 572.743l13.112-37.788 144.539 50.154-13.112 37.788zM631.103 398.781l144.554-50.153 13.112 37.792-144.554 50.153zM638.202 585.09l144.554-50.153 13.112 37.792-144.554 50.153z" fill="#1296db" p-id="15437"></path></svg>