<?xml version="1.0" standalone="no"?><!DOCTYPE svg PUBLIC "-//W3C//DTD SVG 1.1//EN" "http://www.w3.org/Graphics/SVG/1.1/DTD/svg11.dtd"><svg t="1594756402671" class="icon" viewBox="0 0 1024 1024" version="1.1" xmlns="http://www.w3.org/2000/svg" p-id="10569" xmlns:xlink="http://www.w3.org/1999/xlink" width="128" height="128"><defs><style type="text/css"></style></defs><path d="M599.104 853.287l-0.176 50 97.999 0.345s-1.838-46.007-97.823-50.345z" fill="#FFC912" p-id="10570"></path><path d="M623.915 845.486l28.469-59.742c2.376-4.985 0.26-10.953-4.726-13.329-4.985-2.378-10.953-0.262-13.329 4.726l-31.606 66.325c-1.051-0.059-2.096-0.12-3.169-0.169a10 10 0 0 0-10.452 9.955l-0.176 50c-0.02 5.522 4.442 10.016 9.965 10.035l97.999 0.345h0.035a9.998 9.998 0 0 0 9.992-10.4c-0.08-2.061-2.876-46.593-83.002-57.746z m-14.952 47.836l0.104-29.377c37.967 3.193 57.127 13.561 66.634 22.066 2.945 2.636 5.123 5.217 6.731 7.569l-73.469-0.258z" fill="#723703" p-id="10571"></path><path d="M419.007 847.653l-0.176 50-97.999-0.345c0-0.001 2.162-45.993 98.175-49.655z" fill="#FFC912" p-id="10572"></path><path d="M429.253 776.689c0.02-5.522-4.442-10.016-9.965-10.035h-0.036c-5.506 0-9.98 4.454-10 9.965l-0.217 61.563c-94.632 6.752-98.091 56.475-98.193 58.656a9.998 9.998 0 0 0 9.954 10.469l98 0.345h0.035a10 10 0 0 0 10-9.965l0.176-50c0-0.025-0.003-0.049-0.003-0.074l0.249-70.924z m-93.855 110.669c1.625-2.341 3.82-4.906 6.785-7.521 9.566-8.439 28.797-18.671 66.784-21.598l-0.001 0.379c0 0.027 0.004 0.053 0.004 0.08l-0.102 28.919-73.47-0.259z" fill="#723703" p-id="10573"></path><path d="M787.539 790.974l-555.997-1.957c-17.673-0.062-31.949-14.439-31.887-32.112l1.675-475.997c0.062-17.673 14.439-31.949 32.112-31.887l555.997 1.957c17.673 0.062 31.949 14.439 31.887 32.112l-1.675 475.997c-0.062 17.673-14.439 31.949-32.112 31.887z" fill="#FFC912" p-id="10574"></path><path d="M619.177 409.4l-137.657-0.485a8.001 8.001 0 0 1 0.056-16l137.657 0.485a8.001 8.001 0 0 1-0.056 16zM694.216 481.677l-358.286-1.261a8.001 8.001 0 0 1 0.056-16l358.286 1.261a8.001 8.001 0 0 1-0.056 16zM499.734 552.981l-164.058-0.577a8.001 8.001 0 0 1 0.056-16l164.058 0.577a8.001 8.001 0 0 1-0.056 16z" fill="#FFB408" p-id="10575"></path><path d="M619.238 400.392h-0.029l-137.658-0.485a8.001 8.001 0 0 1 0.028-16h0.029l137.658 0.485a8.001 8.001 0 0 1-0.028 16zM694.277 472.668h-0.029l-358.286-1.261a8.001 8.001 0 0 1 0.028-16h0.029l358.286 1.261a8.001 8.001 0 0 1-0.028 16zM499.794 543.972h-0.029l-164.057-0.577a8.001 8.001 0 0 1 0.028-16h0.029l164.057 0.577a8.001 8.001 0 0 1-0.028 16z" fill="#FFFFFF" p-id="10576"></path><path d="M723.639 738.354l-43.781-62.285 88 0.31z" fill="#AEE2FF" p-id="10577"></path><path d="M680.716 436.06l88 0.308-0.84 240-88-0.308z" fill="#FC7070" p-id="10578"></path><path d="M767.702 436.437c0.084-23.748-19.1-43.068-42.848-43.151-23.748-0.084-43.068 19.1-43.151 42.848" fill="#AEE2FF" p-id="10579"></path><path d="M679.858 676.069l43.781 62.285 20.15-28.241-23.831-33.903z" fill="#64D0FF" p-id="10580"></path><path d="M719.858 676.069l0.844-239.797-39-0.137 0.002-0.06-1.001-0.004-0.845 239.998 40.099 0.141-0.099-0.141z" fill="#F75252" p-id="10581"></path><path d="M720.703 436.071l1.001 0.004c0.081-16.445 9.388-30.687 22.994-37.853a42.788 42.788 0 0 0-19.845-4.935c-23.728-0.083-43.033 19.068-43.149 42.788l38.998 0.137 0.001-0.141z" fill="#64D0FF" p-id="10582"></path><path d="M720.702 436.272v-0.06l-38.998-0.137-0.002 0.06 39 0.137z" fill="#AEE2FF" p-id="10583"></path><path d="M201.231 231.991l-1.862 529.126c0.06-17.034 14.435-30.792 32.108-30.73s23.021 0.081 55.021 0.165l1.862-529.126c-32-0.084-37.348-0.103-55.021-0.165-17.673-0.062-32.048 13.696-32.108 30.73z" fill="#FFB408" p-id="10584"></path><path d="M408.712 240.172m-120 0a120 120 0 1 0 240 0 120 120 0 1 0-240 0Z" fill="#FFFFFF" p-id="10585"></path><path d="M409.17 110.172l-0.464-0.001c-71.466 0-129.741 58.019-129.993 129.543-0.122 34.724 13.285 67.417 37.752 92.057s57.065 38.277 91.789 38.399l0.471 0.001c34.546 0 67.059-13.398 91.586-37.753 24.64-24.467 38.277-57.065 38.399-91.79 0.253-71.68-57.858-130.203-129.54-130.456z m77.05 208.055c-20.755 20.609-48.263 31.945-77.497 31.945l-0.398-0.001c-29.382-0.103-56.964-11.642-77.667-32.492-20.703-20.849-32.048-48.513-31.944-77.895 0.213-60.524 49.517-109.613 109.994-109.613l0.393 0.001c60.653 0.213 109.825 49.733 109.611 110.387-0.104 29.382-11.643 56.965-32.492 77.668z" fill="#723703" p-id="10586"></path><path d="M408.712 240.172m-32 0a32 32 0 1 0 64 0 32 32 0 1 0-64 0Z" fill="#723703" p-id="10587"></path><path d="M693.746 240.673m-120 0a120 120 0 1 0 240 0 120 120 0 1 0-240 0Z" fill="#FFFFFF" p-id="10588"></path><path d="M785.993 149.074c-24.468-24.64-57.065-38.277-91.789-38.399l-0.465-0.001c-71.467 0-129.74 58.018-129.992 129.542-0.122 34.724 13.285 67.417 37.752 92.058 24.468 24.64 57.065 38.277 91.79 38.399l0.465 0.001c71.466 0 129.739-58.019 129.991-129.543 0.122-34.724-13.285-67.417-37.752-92.057z m-92.241 201.6l-0.393-0.001c-29.382-0.104-56.965-11.643-77.668-32.492-20.703-20.85-32.048-48.513-31.944-77.895 0.213-60.524 49.517-109.613 109.993-109.613l0.394 0.001c29.382 0.103 56.965 11.642 77.667 32.492 20.703 20.849 32.048 48.513 31.944 77.895-0.213 60.523-49.516 109.615-109.993 109.613z" fill="#723703" p-id="10589"></path><path d="M693.746 240.172m-32 0a32 32 0 1 0 64 0 32 32 0 1 0-64 0Z" fill="#723703" p-id="10590"></path><path d="M304.036 571.109m-32 0a32 32 0 1 0 64 0 32 32 0 1 0-64 0Z" fill="#FFFFFF" p-id="10591"></path><path d="M304.184 529.108h-0.148c-18.244 0-33.818 11.708-39.595 28.019-70.471-19.08-109.367-48.375-115.647-87.131-8.544-52.731 44.804-106.321 52.651-112.322a9.976 9.976 0 0 0 5.792-6.214c1.693-5.257-1.196-10.891-6.453-12.584-6.589-2.122-11.916 2.902-17.064 7.763-11.179 10.553-27.302 29.662-39.026 51.646-15.836 29.693-20.534 57.583-13.964 82.896 11.359 43.765 55.696 76.082 131.758 96.109 1.293 8.82 5.348 16.968 11.746 23.412 7.905 7.961 18.437 12.366 29.655 12.406h0.152c11.162 0 21.665-4.328 29.589-12.197 7.96-7.904 12.366-18.437 12.406-29.655 0.081-23.158-18.693-42.066-41.852-42.148z m15.354 57.612a21.853 21.853 0 0 1-15.499 6.389h-0.08c-5.876-0.021-11.393-2.328-15.534-6.498s-6.41-9.703-6.389-15.579c0.042-12.104 9.904-21.923 21.999-21.923h0.078c12.13 0.043 21.965 9.946 21.922 22.077a21.85 21.85 0 0 1-6.497 15.534z" fill="#723703" p-id="10592"></path><path d="M718.438 572.567m-32 0a32 32 0 1 0 64 0 32 32 0 1 0-64 0Z" fill="#FFFFFF" p-id="10593"></path><path d="M878.997 400.875c-11.567-22.064-27.556-41.288-38.661-51.921-5.115-4.897-10.404-9.963-17.013-7.886-5.269 1.656-8.197 7.269-6.542 12.538a9.977 9.977 0 0 0 5.749 6.256c7.81 6.061 60.773 60.022 51.859 112.689-6.553 38.711-45.654 67.732-116.257 86.315-5.677-16.397-21.237-28.234-39.546-28.299h-0.152c-11.161 0-21.665 4.328-29.589 12.196-7.961 7.905-12.366 18.437-12.406 29.655-0.082 23.159 18.692 42.066 41.852 42.148h0.149c20.94 0 38.374-15.418 41.499-35.525 76.202-19.491 120.767-51.495 132.435-95.178 6.748-25.264 2.248-53.186-13.377-82.988zM718.438 594.567h-0.078c-12.131-0.043-21.965-9.947-21.922-22.078a21.855 21.855 0 0 1 6.498-15.533 21.853 21.853 0 0 1 15.499-6.389h0.08c12.131 0.043 21.965 9.947 21.923 22.077-0.042 12.105-9.905 21.923-22 21.923z" fill="#723703" p-id="10594"></path><path d="M750.139 515.841l-0.021-0.001a6 6 0 0 1-5.979-6.021l0.141-40a6 6 0 0 1 6-5.979h0.021a6.002 6.002 0 0 1 5.979 6.021l-0.141 40a6.002 6.002 0 0 1-6 5.98z" fill="#FFFFFF" p-id="10595"></path></svg>