<?xml version="1.0" standalone="no"?><!DOCTYPE svg PUBLIC "-//W3C//DTD SVG 1.1//EN" "http://www.w3.org/Graphics/SVG/1.1/DTD/svg11.dtd"><svg t="1594756342445" class="icon" viewBox="0 0 1104 1024" version="1.1" xmlns="http://www.w3.org/2000/svg" p-id="9635" xmlns:xlink="http://www.w3.org/1999/xlink" width="138" height="128"><defs><style type="text/css"></style></defs><path d="M919.251863 382.026721q0.284437-7.39535 0.284436-14.733812a367.264465 367.264465 0 1 0-734.585817 0q0 7.281576 0.284437 14.733812a241.259076 241.259076 0 0 0 55.977112 475.919225h65.249743v-75.091248H241.268918a166.167829 166.167829 0 0 1-12.628983-331.880558l39.821116-3.015028-5.68873-39.821116a296.724202 296.724202 0 0 1-2.901253-41.015749 292.230105 292.230105 0 0 1 584.403322 0 296.382878 296.382878 0 0 1-2.901253 41.015749l-5.688731 39.821116 39.821116 3.015028a166.167829 166.167829 0 0 1-12.628982 331.880558h-64.453321v75.091248h64.794645a241.259076 241.259076 0 0 0 55.977112-475.862337z" fill="#467CFD" p-id="9636"></path><path d="M584.6976 556.386323a42.665482 42.665482 0 0 0-64.908419 0l-130.84081 150.92203a45.509847 45.509847 0 0 0-11.377461 30.264048 44.485875 44.485875 0 0 0 43.575678 45.22541 42.836143 42.836143 0 0 0 32.425766-15.018249l54.782478-63.144913v274.196828a43.575678 43.575678 0 1 0 87.151357 0v-274.424377l54.782478 63.144912a42.665482 42.665482 0 0 0 32.368879 15.01825 44.485875 44.485875 0 0 0 43.689453-45.22541 46.306269 46.306269 0 0 0-11.377462-30.264049z" fill="#8BAEF7" p-id="9637"></path></svg>