<?xml version="1.0" standalone="no"?><!DOCTYPE svg PUBLIC "-//W3C//DTD SVG 1.1//EN" "http://www.w3.org/Graphics/SVG/1.1/DTD/svg11.dtd"><svg t="1594756577131" class="icon" viewBox="0 0 1024 1024" version="1.1" xmlns="http://www.w3.org/2000/svg" p-id="12103" xmlns:xlink="http://www.w3.org/1999/xlink" width="128" height="128"><defs><style type="text/css"></style></defs><path d="M384 177c17.3 0 32 14.7 32 32v176c0 17.3-14.7 32-32 32H208c-17.3 0-32-14.7-32-32V209c0-17.3 14.7-32 32-32h176m0-64H208c-52.8 0-96 43.2-96 96v176c0 52.8 43.2 96 96 96h176c52.8 0 96-43.2 96-96V209c0-52.8-43.2-96-96-96zM384 609c17.3 0 32 14.7 32 32v176c0 17.3-14.7 32-32 32H208c-17.3 0-32-14.7-32-32V641c0-17.3 14.7-32 32-32h176m0-64H208c-52.8 0-96 43.2-96 96v176c0 52.8 43.2 96 96 96h176c52.8 0 96-43.2 96-96V641c0-52.8-43.2-96-96-96zM816 609c17.3 0 32 14.7 32 32v176c0 17.3-14.7 32-32 32H640c-17.3 0-32-14.7-32-32V641c0-17.3 14.7-32 32-32h176m0-64H640c-52.8 0-96 43.2-96 96v176c0 52.8 43.2 96 96 96h176c52.8 0 96-43.2 96-96V641c0-52.8-43.2-96-96-96z" fill="#691FFF" p-id="12104"></path><path d="M728 177c66.2 0 120 53.8 120 120s-53.8 120-120 120-120-53.8-120-120 53.8-120 120-120m0-64c-101.6 0-184 82.4-184 184s82.4 184 184 184 184-82.4 184-184-82.4-184-184-184z" fill="#E04DFF" p-id="12105"></path></svg>