<?xml version="1.0" standalone="no"?><!DOCTYPE svg PUBLIC "-//W3C//DTD SVG 1.1//EN" "http://www.w3.org/Graphics/SVG/1.1/DTD/svg11.dtd"><svg t="1594756603697" class="icon" viewBox="0 0 1024 1024" version="1.1" xmlns="http://www.w3.org/2000/svg" p-id="12511" xmlns:xlink="http://www.w3.org/1999/xlink" width="128" height="128"><defs><style type="text/css"></style></defs><path d="M512.141016 998.94531a491.969847 491.969847 0 1 1 491.969847-491.969847 492.505762 492.505762 0 0 1-491.969847 491.969847z" fill="#84F8FE" p-id="12512"></path><path d="M512.141016 30.011232a476.964231 476.964231 0 1 1-476.964231 476.964231 476.964231 476.964231 0 0 1 476.964231-476.964231z m0-30.011232a506.975463 506.975463 0 1 0 506.841484 506.975463A507.511378 507.511378 0 0 0 512.141016 0z" fill="#484F59" p-id="12513"></path><path d="M659.651583 667.214008l-121.384717-4.421298v-1.339787l-17.81917 0.669894-17.819169-0.669894v1.339787L380.305959 667.214008c-19.962829 0-214.365946 47.830402-214.365946 66.989358v238.482116a35.906296 35.906296 0 0 0 36.040274 35.772317h636.130946a36.040275 36.040275 0 0 0 36.174254-35.772317V734.739281c0-19.694871-194.671075-67.525273-214.633904-67.525273z" fill="#FFC400" p-id="12514"></path><path d="M838.111233 1023.99933H201.980287a50.911912 50.911912 0 0 1-51.045891-50.777933v-238.482116c0-11.388191 0-24.384126 110.800399-55.601167a869.789827 869.789827 0 0 1 118.839121-26.795743l109.326633-4.019362v-2.143659l29.609296 1.071829 29.743275-1.071829v2.143659l109.862548 4.019362a885.331359 885.331359 0 0 1 118.303207 26.795743C889.425082 710.087197 889.425082 723.485069 889.425082 734.739281v238.482116a51.045891 51.045891 0 0 1-51.313849 50.777933zM180.945629 739.562515v233.658882a20.90068 20.90068 0 0 0 21.034658 20.766701h636.130946a20.90068 20.90068 0 0 0 21.168637-20.766701V739.696494c-8.172702-5.359149-35.50436-17.015297-97.938441-34.164573a889.618677 889.618677 0 0 0-101.689846-23.312297l-133.978717-5.359148h-11.790127l-133.040865 4.957212c-19.426914 0.669894-174.708246 39.791679-199.896245 57.744827z" fill="#484F59" p-id="12515"></path><path d="M610.88333 712.90075c3.08151-21.570573 6.163021-86.952187 9.244531-108.52276a73.956252 73.956252 0 0 0 36.040275-47.96438c2.277638-19.962829 4.689255-40.193615 6.966893-60.156444a17.283254 17.283254 0 0 0 30.011233-10.048404l9.646468-92.713272A17.283254 17.283254 0 0 0 687.251198 375.140406a17.685191 17.685191 0 0 0-10.182382 2.009681c2.009681-17.685191 4.15334-35.102424 6.029042-52.787614 1.741723-24.116169 13.397872-88.559932-32.824785-130.093334-66.989358-66.051507-215.303797-66.051507-282.427135 0-46.624593 41.533402-34.566509 105.977165-32.958764 130.093334l6.029042 52.787614a17.015297 17.015297 0 0 0-10.048403-2.009681 17.417233 17.417233 0 0 0-15.67551 19.024978l9.646467 92.713272a17.283254 17.283254 0 0 0 30.011233 8.842595c2.277638 20.096807 4.689255 40.193615 6.966893 60.156444a74.09023 74.09023 0 0 0 36.174254 47.96438c3.08151 21.570573 6.163021 86.952187 9.110552 108.522761 0 0 36.978126 83.736698 93.785102 82.932825 66.989358-0.535915 109.996526-82.396911 109.996526-82.396911z" fill="#F7F8FC" p-id="12516"></path><path d="M340.112344 370.987066h13.397872v-97.938442a33.494679 33.494679 0 0 1 33.494679-33.494679l173.23448 58.682678 64.309784-58.682678a33.494679 33.494679 0 0 1 33.494679 33.494679v97.938442h19.694872c1.741723-15.809489 3.617425-31.484998 5.359148-47.294487 1.741723-24.116169 13.397872-88.559932-32.824785-130.093334-66.989358-66.051507-215.303797-66.051507-282.427135 0-46.624593 41.533402-34.566509 105.977165-32.958764 130.093334 1.875702 15.809489 3.617425 31.484998 5.22517 47.294487z" fill="#B7BEC0" p-id="12517"></path><path d="M671.977625 439.852126h-30.011233V273.048624a18.489063 18.489063 0 0 0-9.512489-16.077446l-18.087126 43.409104-104.771357-20.230786 14.335723 62.300103L390.354363 254.559561a18.489063 18.489063 0 0 0-14.60368 18.087127v167.205438h-30.011233V273.048624A48.634274 48.634274 0 0 1 393.703831 224.548329h4.421297l79.3154 51.983742-8.038723-34.566509 126.207951 24.384126 17.283255-41.801359h10.048404a48.634274 48.634274 0 0 1 48.500295 48.500295z" fill="#484F59" p-id="12518"></path><path d="M500.886804 810.839192c-80.38723 0-107.182973-90.033697-107.182973-93.785101v-1.875702c-1.473766-11.254212-2.947532-32.556828-4.555277-55.065253-1.205808-17.551212-2.545596-35.50436-3.751404-47.160508a82.664868 82.664868 0 0 1-36.978126-55.065253l-4.823233-40.863508a32.288871 32.288871 0 0 1-32.154892-29.20736L299.918729 395.103235a31.618977 31.618977 0 0 1 7.234851-23.848212 32.288871 32.288871 0 0 1 16.479382-10.718297c-0.937851-8.574638-2.009681-17.149276-2.947532-25.723914l-1.07183-9.37851-0.803872-8.976574c-2.813553-29.743275-8.708617-91.641442 38.58587-133.978716 34.298551-33.762637 89.631761-53.591487 151.261971-53.591487s116.829441 19.560893 151.663907 53.591487c46.892551 41.80136 40.997487 103.833505 38.049956 133.978716 0 3.08151 0 5.761085-0.669894 8.172702-1.339787 12.192063-2.679574 23.98219-4.019361 35.772317a32.288871 32.288871 0 0 1 23.580254 34.700488l-9.512489 92.445314a32.556828 32.556828 0 0 1-32.288871 29.20736l-4.823233 41.265445A82.262932 82.262932 0 0 1 634.86552 612.818649c-1.339787 11.52217-2.545596 29.341339-3.751404 46.624594-1.607745 22.776382-3.08151 44.212976-4.823234 55.601167v2.143659A131.701078 131.701078 0 0 1 500.886804 810.839192zM421.839361 710.087197c2.545596 8.574638 23.580254 71.00872 78.645507 71.00872 69.534954 0 92.847251-62.836018 95.660803-71.142698 1.473766-10.852276 2.947532-31.886935 4.421298-52.2517 1.607745-22.642403 3.08151-43.945019 4.689255-55.199231l0.937851-6.832915 5.761085-3.617425a59.888486 59.888486 0 0 0 29.20736-36.576189c2.411617-20.498744 4.823234-40.193615 7.100872-60.692359l3.617425-31.752956 22.106488 23.178318a3.617425 3.617425 0 0 0 1.607745 0.937851 2.545596 2.545596 0 0 0 2.679574-2.277638l10.182383-92.847251a2.679574 2.679574 0 0 0 0-1.741723 2.411617 2.411617 0 0 0-1.741723-0.937851h-1.473766l-25.321978 13.397872 4.15334-35.50436c1.741723-15.407552 3.617425-30.681126 5.22517-45.9547 0-2.009681 0-4.957213 0.803873-8.440659 2.545596-26.795743 7.368829-76.501847-28.805424-108.790718-29.341339-28.805424-78.24357-45.686742-131.165164-45.686742s-103.029633 17.685191-131.835057 45.9547c-36.57619 32.690807-31.886935 82.530889-29.341339 109.192654 0 3.483447 0.669894 6.564957 0.803873 9.110552l1.071829 8.708617c1.741723 14.469701 3.349468 28.939403 4.957213 43.543083l3.349468 29.073381-25.455956-14.335722h-1.205809a2.411617 2.411617 0 0 0-1.607744 0.937851 1.875702 1.875702 0 0 0 0 1.741723l9.244531 92.311336a2.545596 2.545596 0 0 0 2.545596 2.277638 4.287319 4.287319 0 0 0 1.741723-0.937851l22.106488-23.312297 3.617426 31.886935c2.277638 20.096807 4.689255 40.193615 7.100871 60.156443a59.888486 59.888486 0 0 0 29.341339 37.112105l5.761085 3.617425 0.937851 6.832915c1.607745 11.388191 3.08151 32.958764 4.689255 55.735146 0.937851 20.230786 2.545596 41.265445 3.885383 52.11772z" fill="#484F59" p-id="12519"></path><path d="M552.870546 654.084094h-87.220145l-76.903783-38.451892 13.397872-26.795743 70.472805 35.370381h80.253251v29.877254z" fill="#484F59" p-id="12520"></path></svg>