<?xml version="1.0" standalone="no"?><!DOCTYPE svg PUBLIC "-//W3C//DTD SVG 1.1//EN" "http://www.w3.org/Graphics/SVG/1.1/DTD/svg11.dtd"><svg t="1594756138416" class="icon" viewBox="0 0 1024 1024" version="1.1" xmlns="http://www.w3.org/2000/svg" p-id="5580" width="240" height="240" xmlns:xlink="http://www.w3.org/1999/xlink"><defs><style type="text/css"></style></defs><path d="M354.944785 273.621595c0 86.744736 70.304196 157.055215 157.055215 157.055215s157.055215-70.310479 157.055215-157.055215c0-86.751018-70.304196-157.055215-157.055215-157.055215s-157.055215 70.304196-157.055215 157.055215z" fill="#FFB74D" p-id="5581"></path><path d="M826.110429 629.935902s-86.380368-185.890552-314.110429-185.890552-314.110429 185.890552-314.110429 185.890552v102.085889h628.220858v-102.085889z" fill="#607D8B" p-id="5582"></path><path d="M310.15892 113.004368l-36.813742-14.970503L513.231313 0l239.879853 98.033865-239.879853 98.040147L318.507975 116.440736m424.419731-16.321178v96.808835h9.567803v-96.808835h-9.567803z m-13.381105 189.697571h36.32373v-94.233129h-36.317448v94.233129z" fill="#666666" p-id="5583"></path><path d="M563.413595 513.130798c2.575706-5.277055 2.820712-10.679755 0.735018-16.446823-2.085693-5.641423-5.277055-11.163485-9.448441-16.440539a240.539485 240.539485 0 0 0-15.089865-16.930553s-3.436368-0.251288-8.104049-1.595681c-13.36854-4.787043-27.849031-4.787043-41.468859-0.125644-4.661399 1.350675-8.104049 1.721325-8.104049 1.721325-5.760785 6.012074-10.428466 11.779141-13.73919 16.930553a61.835779 61.835779 0 0 0-8.097767 14.48049c-2.085693 5.277055-1.960049 10.064098 0.615656 14.354847 5.767067 12.149791 10.918479 22.948908 15.089865 32.026699 4.171387 9.203436 8.713423 16.44054 13.745473 21.591951-1.721325 7.852761-4.171387 19.022528-7.607755 33.377375a1286.973252 1286.973252 0 0 0-9.32908 44.540858c-2.940074 15.215509-5.396417 29.689718-7.601472 43.190184-2.085693 13.494184-3.072 23.803288-3.072 30.669743 0 4.422675 1.840687 9.574086 5.647705 15.705521 3.800736 6.137718 8.217129 12.394798 13.129816 19.022528 5.025767 6.502086 10.302822 12.024147 15.705522 16.44054 5.396417 4.416393 10.302822 6.502086 14.474208 6.502086 4.171387 0 9.203436-2.205055 14.970503-6.502086a128.753865 128.753865 0 0 0 16.930553-15.089865 92.637448 92.637448 0 0 0 13.745472-18.281227c3.800736-6.508368 5.641423-12.030429 5.641423-16.321178 0-5.277055-1.225031-14.235485-3.681374-26.875289-2.575706-12.633521-5.277055-26.869006-8.217129-42.574527-2.826994-15.705521-6.012074-31.040393-9.448442-45.891534-3.317006-14.844859-6.25708-26.624-8.713423-35.337423 5.025767-4.416393 9.819092-10.673472 14.354847-19.016246 4.542037-7.978405 10.18346-19.14189 16.936834-33.126085z" fill="#FFFFFF" p-id="5584"></path><path d="M957.031656 601.106847H66.968344L40.834356 705.768442l130.921227 78.527607-52.39362-78.527607h785.276074l-52.39362 78.527607 130.921227-78.527607-26.133988-104.661595z" fill="#B0BEC5" p-id="5585"></path><path d="M119.361963 705.768442h785.276074l-104.661595 314.110429H224.023558z" fill="#78909C" p-id="5586"></path></svg>