<?xml version="1.0" standalone="no"?><!DOCTYPE svg PUBLIC "-//W3C//DTD SVG 1.1//EN" "http://www.w3.org/Graphics/SVG/1.1/DTD/svg11.dtd"><svg t="1594755560949" class="icon" viewBox="0 0 1024 1024" version="1.1" xmlns="http://www.w3.org/2000/svg" p-id="3083" xmlns:xlink="http://www.w3.org/1999/xlink" width="128" height="128"><defs><style type="text/css"></style></defs><path d="M904.704 763.392h-276.48c-10.752 0-19.456-8.704-19.456-19.456 0-10.752 8.704-19.456 19.456-19.456h276.48c10.752 0 19.456 8.704 19.456 19.456 0 10.752-8.704 19.456-19.456 19.456z" fill="#666666" p-id="3084"></path><path d="M766.464 901.632c-10.752 0-19.456-8.704-19.456-19.456v-276.48c0-10.752 8.704-19.456 19.456-19.456s19.456 8.704 19.456 19.456v276.48c0 10.752-8.704 19.456-19.456 19.456zM498.688 526.336c-112.64 0-204.288-91.648-204.288-204.288S386.048 117.76 498.688 117.76s204.288 91.648 204.288 204.288-91.648 204.288-204.288 204.288z m0-369.664c-91.136 0-165.376 74.24-165.376 165.376 0 91.136 74.24 165.376 165.376 165.376 91.136 0 165.376-74.24 165.376-165.376 0-91.136-74.24-165.376-165.376-165.376z" fill="#666666" p-id="3085"></path><path d="M121.856 894.464c-10.752 0-19.456-8.704-19.456-19.456 0-210.944 171.52-382.976 382.976-382.976 81.92 0 159.744 25.6 225.792 73.728 8.704 6.144 10.752 18.432 4.096 27.136a19.0464 19.0464 0 0 1-27.136 4.096c-59.392-43.52-129.536-66.048-202.752-66.048-189.44 0-343.552 154.112-343.552 343.552-0.512 11.264-9.216 19.968-19.968 19.968z" fill="#666666" p-id="3086"></path></svg>