<?xml version="1.0" standalone="no"?><!DOCTYPE svg PUBLIC "-//W3C//DTD SVG 1.1//EN" "http://www.w3.org/Graphics/SVG/1.1/DTD/svg11.dtd"><svg t="1596621470094" class="icon" viewBox="0 0 1024 1024" version="1.1" xmlns="http://www.w3.org/2000/svg" p-id="3006" xmlns:xlink="http://www.w3.org/1999/xlink" width="360" height="360"><defs><style type="text/css"></style></defs><path d="M922.3 121.4h-820v500.2h820V121.4zM333.4 265.2c19.3 0 35 15.7 35 35 0 1.2-0.1 2.4-0.2 3.6L504 349.4c6.2-9.6 17.1-16 29.3-16 7.8 0 15.1 2.6 20.9 6.9l138.9-106.5c-2.3-4.6-3.6-9.9-3.6-15.4 0-19.3 15.7-35 35-35s35 15.7 35 35-15.7 35-35 35c-7.3 0-14-2.2-19.6-6l-139.5 107c1.9 4.3 2.9 9 2.9 14 0 19.3-15.7 35-35 35s-35-15.7-35-35c0-0.7 0-1.3 0.1-1.9l-136.6-45.8c-6.4 8.8-16.7 14.6-28.4 14.6-19.3 0-35-15.7-35-35s15.7-35.1 35-35.1zM845.3 581H192.9c-5 0-9-4-9-9V192.5c0-5 4-9 9-9s9 4 9 9V563h83.2c-0.2-0.6-0.3-1.2-0.3-1.9V394.5c0-3.3 2.7-6 6-6h93.4c3.3 0 6 2.7 6 6v166.6c0 0.7-0.1 1.3-0.3 1.9h88.3c-0.2-0.6-0.3-1.2-0.3-1.9V454.5c0-3.3 2.7-6 6-6h93.4c3.3 0 6 2.7 6 6v106.6c0 0.7-0.1 1.3-0.3 1.9h88.3c-0.2-0.6-0.3-1.2-0.3-1.9V304.6c0-3.3 2.7-6 6-6h93.3c3.4 0 6 2.7 6.1 6v256.5c0 0.7-0.1 1.3-0.3 1.9h69.2c5 0 9 4 9 9s-4 9-9 9z" fill="#66C1FF" p-id="3007"></path><path d="M922.3 103.4h-820c-9.9 0-18 8.1-18 18V732.8c0 9.9 8.1 18 18 18h325.5v81.1h-241c-9.9 0-18 8.1-18 18v53.4c0 9.9 8.1 18 18 18H838c9.9 0 18-8.1 18-18v-53.4c-0.1-9.9-8.1-18-18.1-18H596.8v-81.1h325.5c9.9 0 18-8.1 18-18V121.4c0-9.9-8-18-18-18zM578.8 831.9h-133v-81.1h133v81.1z m259.1 71.4H186.8v-53.4h651.1v53.4zM102.3 121.4h820v500.2h-820V121.4z m0 611.4v-93.2h820V732.8h-820z" fill="#330867" p-id="3008"></path><path d="M922.3 708.7v-69.1h-820v42.1c226 35 499.3 44 820 27z" fill="#FFFFFF" p-id="3009"></path><path d="M922.3 732.8v-24.1c-320.7 17-594 8-820-27v51.1h820z" fill="#F7D7FF" p-id="3010"></path><path d="M445.8 750.8h133v81.1h-133z" fill="#F0BEFC" p-id="3011"></path><path d="M186.8 849.9h651.1v53.4H186.8z" fill="#FFE08A" p-id="3012"></path><path d="M845.3 563h-69.2c0.2-0.6 0.3-1.2 0.3-1.9V304.6c-0.1-3.3-2.7-6-6.1-6H677c-3.3 0-6 2.7-6 6v256.5c0 0.7 0.1 1.3 0.3 1.9H583c0.2-0.6 0.3-1.2 0.3-1.9V454.5c0-3.3-2.7-6-6-6h-93.4c-3.3 0-6 2.7-6 6v106.6c0 0.7 0.1 1.3 0.3 1.9h-88.3c0.2-0.6 0.3-1.2 0.3-1.9V394.5c0-3.3-2.7-6-6-6h-93.4c-3.3 0-6 2.7-6 6v166.6c0 0.7 0.1 1.3 0.3 1.9h-83.2V192.5c0-5-4-9-9-9s-9 4-9 9V572c0 5 4 9 9 9h652.4c5 0 9-4 9-9s-4-9-9-9zM677 432.9V304.6h93.3v128.3h0.1v128.2H677V432.9z m-193.1 89.9v-68.3h93.4v106.6h-93.4v-38.3z m-193.1-28.4v-99.9h93.4V561.1h-93.4v-66.7z" fill="#330867" p-id="3013"></path><path d="M290.8 394.5h93.4v99.9h-93.4z" fill="#FC6B79" p-id="3014"></path><path d="M384.2 561.1v-66.7h-93.4v66.7z" fill="#DD365E" p-id="3015"></path><path d="M483.9 454.5h93.4v68.3h-93.4z" fill="#FC6B79" p-id="3016"></path><path d="M483.9 522.8h93.4v38.3h-93.4z" fill="#DD365E" p-id="3017"></path><path d="M677 304.6h93.3v128.3H677z" fill="#FC6B79" p-id="3018"></path><path d="M770.4 561.1V432.9H677v128.2h93.3z" fill="#DD365E" p-id="3019"></path><path d="M333.4 300.2m-17 0a17 17 0 1 0 34 0 17 17 0 1 0-34 0Z" fill="#FFE08A" p-id="3020"></path><path d="M333.4 335.2c11.7 0 22-5.8 28.4-14.6l136.6 45.8c0 0.6-0.1 1.3-0.1 1.9 0 19.3 15.7 35 35 35s35-15.7 35-35c0-5-1-9.7-2.9-14l139.5-107c5.6 3.8 12.3 6 19.6 6 19.3 0 35-15.7 35-35s-15.7-35-35-35-35 15.7-35 35c0 5.5 1.3 10.7 3.6 15.4L554.2 340.3c-5.8-4.4-13.1-6.9-20.9-6.9-12.3 0-23.1 6.4-29.3 16l-135.7-45.6c0.1-1.2 0.2-2.4 0.2-3.6 0-19.3-15.7-35-35-35s-35 15.7-35 35 15.6 35 34.9 35z m182.9 33.2c0-9.4 7.6-17 17-17s17 7.6 17 17-7.6 17-17 17-17-7.6-17-17z m191.2-149.9c0-9.4 7.6-17 17-17s17 7.6 17 17-7.6 17-17 17-17-7.6-17-17z m-374.1 64.7c9.4 0 17 7.6 17 17s-7.6 17-17 17-17-7.6-17-17 7.6-17 17-17z" fill="#330867" p-id="3021"></path><path d="M533.3 368.4m-17 0a17 17 0 1 0 34 0 17 17 0 1 0-34 0Z" fill="#FFE08A" p-id="3022"></path><path d="M724.5 218.5m-17 0a17 17 0 1 0 34 0 17 17 0 1 0-34 0Z" fill="#FFE08A" p-id="3023"></path></svg>