<?xml version="1.0" standalone="no"?><!DOCTYPE svg PUBLIC "-//W3C//DTD SVG 1.1//EN" "http://www.w3.org/Graphics/SVG/1.1/DTD/svg11.dtd"><svg t="1596621507723" class="icon" viewBox="0 0 1024 1024" version="1.1" xmlns="http://www.w3.org/2000/svg" p-id="3179" xmlns:xlink="http://www.w3.org/1999/xlink" width="360" height="360"><defs><style type="text/css"></style></defs><path d="M516.677 372.801l197.21-197.21 16.405 16.405-197.21 197.21zM584.008 491.003l211.07-211.07 16.404 16.406-211.07 211.069zM743.488 515.908L882.646 376.75l16.404 16.405-139.157 139.157z" fill="#FF8D0A" p-id="3180"></path><path d="M515.1 106.2h-6.3c-222.8 0-404.1 181.3-404.1 404.1S286 914.4 508.8 914.4h6.3c222.8 0 404.1-181.3 404.1-404.1S737.9 106.2 515.1 106.2z m356.5 379.1H717.9l121.9-124.2c17.7 38.3 28.7 80.1 31.8 124.2zM829 339L686.9 483.9l1.4 1.4H536.5v-6.8l226-226c26.3 25.3 48.9 54.3 66.5 86.5z m-292.5-46l113.7-113.7c34.8 14.2 66.8 33.8 95.1 57.6L536.5 445.7V293z m0-32.9V153.7c31.1 1.9 61.2 7.4 89.7 16.8l-89.7 89.6z m-21.4 608h-6.3C311.5 868.1 151 707.6 151 510.4c0-191 150.5-347 339.1-356.8v378.2h381.7C860.6 719 705.1 868.1 515.1 868.1z" fill="#4B5E6D" p-id="3181"></path></svg>